<svg version="1" xmlns="http://www.w3.org/2000/svg" width="384" height="384" viewBox="0 0 288.000000 288.000000"><path d="M126.8 2.5c-9.8 1.7-13.8 3-22.1 7.3-5.8 3-14.7 10.9-14.7 13.1 0 .4-3.3.5-7.2.3-8.4-.4-15.6 1.6-24.6 7C46 37.6 30 55.4 23.9 68.6c-3.3 7.1-5.1 17.3-4.3 23.8.7 4.6.6 4.8-3.9 9-4.8 4.7-10.6 15.6-12.5 23.7-3 12.4-2.4 31.8 1.4 46.5 2.6 10.4 9.6 21.6 15.4 25 2.7 1.7 2.8 2.1 3.2 10.4.3 8 .7 9.5 4.8 17.6 8.9 17.5 22.3 30.7 40 39.1 9.3 4.4 20.3 6.3 25.6 4.3 1.7-.7 3.2.2 7.8 4.5 8.2 7.8 23.8 14.7 29.6 13.2 1.1-.3 2.2-.2 2.5.3 1.3 2.1 31.7 0 38.8-2.7 12.3-4.5 21.9-10.9 24.6-16.2 1-1.9 1.9-2.2 4.4-1.8 3.7.6 18.7-2.2 18.7-3.4 0-.5.9-.9 2-.9 2.6 0 8-2.7 8-4 0-.6.6-1 1.3-1 2.6 0 18.6-15.3 23.2-22.2 1.6-2.3 3.4-4.8 3.9-5.3 5.7-5.4 11.3-27.1 8.8-33.6-1-2.4-.7-3 2.7-5.7 12.1-9.7 18.2-31.4 15.9-56.2-.7-7.2-3.7-19.2-5.1-20.1-.5-.3-.7-.8-.6-1 .2-.2-.5-2.4-1.4-4.8-1.9-4.6-12.1-16.1-14.4-16.1-1.6 0-1.6-.1-.3-3.5 1.3-3.5-.3-13.6-3.1-20.1-5.3-11.9-20.9-29.9-32.9-37.9-11.7-7.8-29.6-11.9-36.3-8.4-1.8 1-2.3.9-3.2-.7-.5-1-3.2-4.2-6-7-6-6.1-12.5-8.9-26.4-10.9-11.4-1.8-18.9-1.8-29.3 0zm25.7 2c11.1 1.5 22.1 5.1 24.6 8.1.7.8-1.1.4-4.2-1.1-10.3-4.6-17.4-6-31.9-6-15.2.1-22.2 1.5-32.8 6.7-7 3.5-12.3 8.2-15.2 13.7-1.1 2-1.9 2.9-2 2.1-.1-4.3 6.8-11.6 15.6-16.4 12.8-7.1 28.6-9.5 45.9-7.1zM181 15c0 .5-.2 1-.4 1-.3 0-.8-.5-1.1-1-.3-.6-.1-1 .4-1 .6 0 1.1.4 1.1 1zm8.3 9.2c2-1.6 9-2.3 13.7-1.3 4.4.9 4.4.9-2.6 1-5.8.1-7.8.6-10.8 2.6l-3.6 2.4v-3.7c.1-3.1.2-3.4 1.1-1.9.7 1.2 1.4 1.5 2.2.9zM87.7 25.8c.7.4-1.9.8-5.7.8-3.8 0-6.6-.4-6.4-.8.7-1 10.5-1 12.1 0zM73 27.4c0 .3-1.7 1-3.7 1.7-25.5 8.4-52.5 48.2-44.9 66.3 1.9 4.6 1.9 4.6.3 4.6-2.8 0-9.5 7.1-12.4 13.2-4.9 10-6.6 18.6-6.5 32.5.1 19.8 4.7 34.9 13.7 45.1 3 3.5 3.4 4.2 1.4 2.9-7.2-4.8-14.3-20.2-16.4-35.7-1.8-13.8 0-31.4 4.1-40.7.8-1.7 1.4-3.4 1.4-3.8 0-1 6.2-9.8 7.9-11.3.9-.7 2.8-1.8 4.3-2.3 2.5-1 2.6-1.2 1.3-3.2-3.2-5-1.9-18.2 2.7-27.7 5.9-12 22.7-31.2 31.2-35.5 2.1-1.1 5.7-3 8-4.2 3.7-2 7.6-2.9 7.6-1.9zm66 1.8c-16.2 1.1-25.6 4.4-32.3 11.3-2.9 3-3.6 3.3-4.6 2.1-.8-1-.9-1.6-.1-2.1.5-.3 1-1.6 1-2.8.1-2 .2-2 1.1-.4.9 1.6 1.2 1.5 4.3-.8 1.8-1.4 3.8-2.5 4.4-2.5.7 0 1.2-.5 1.2-1 0-.6.9-1 1.9-1 1.1 0 2.7-.7 3.5-1.6.9-.8 1.6-1 1.6-.4 0 .8.6.8 2.1-.1 1.1-.6 5.5-1.3 9.7-1.6 4.3-.2 7.8-.6 7.9-.7.1-.1 2.1.1 4.5.3 3.2.4 1.5.7-6.2 1.3zm14.8-.6c3.3.9 2.7 2.1-.8 1.6-1.6-.2-3-.8-3-1.3 0-1 .7-1.1 3.8-.3zm7.7 2.4c1.3.6 1.5.9.5.9-.8 0-2.2-.4-3-.9-1.8-1.2-.2-1.2 2.5 0zm28.5 4c-.6 1.2-1.4 1.9-1.7 1.7-.2-.3 0-1.4.6-2.5s.9-2.2.7-2.4c-.1-.3.1-.2.6.2.6.5.5 1.6-.2 3zm-92-.2c0 1.5-.2 1.5-1 .2-1.3-2-1.3-3.3 0-2.5.6.3 1 1.4 1 2.3zm60.9.7c6 1.8 13.1 5.9 13.1 7.6 0 .6-.5.7-1.2.2-.7-.4-1.7-.8-2.3-1-.5-.1-2.1-.5-3.5-.9-2.1-.6-1.9-.1 1.6 2.9 3.3 2.9 4 4.1 3.7 6.4-.4 2.4-.1 2.9 1.6 2.9 2.2 0 3-3 1.1-3.9-.6-.3-.5-.4.2-.3.7.1 1.8-.8 2.5-2.2 1-1.9 1-2.9-.2-5.3-1.8-3.4-1.1-3.8 1.5-.7l1.7 2.2 2.8-3c1.6-1.6 2.6-2.1 2.2-1.2-.3.9-1.1 3.6-1.7 6-.7 2.4-1.9 5.6-2.7 7.1-1.8 3.5-.5 5.4 3.7 5.5 3.4.1 3.5-.1 1.8-2.8-3.3-5.2 8.1-7.8 17-4 5.1 2.2 6.6 3.7 3.7 3.7-.8 0-1.5-.5-1.5-1.1 0-.6-.4-.6-1.1.1-.7.7-2.1.8-4 .3-4-1.2-3.7-.3.5 1.4 4.4 1.8 7.3 6 5.6 8.1-.6.8-1 2.1-.8 3 .3 1.4.6 1.3 2.5-.4 1.2-1.2 2.3-2.1 2.5-2.1.3 0 .2 5.6-.1 7.5-.1.5-.6.3-1.1-.5-1.3-2.1-1.3.5 0 3 .8 1.5 2 2.1 7.3 3.5.4.2 1 .4 1.5.5.4.1 1.1.2 1.6.1s1.3.4 1.7 1c.6 1 1.1 1 2.2.1 2.5-2.1 7.3 2.8 8.7 8.8.6 2.7.9 5.4.5 6-.3.5-.1 1 .4 1 .6 0 1.1.9 1.1 2 0 2.1-1.6 2.8-2.2.9-.6-1.8-3.8.2-3.8 2.5 0 3.1 1 3.9 2.9 2.2.9-.8 2.1-1.4 2.6-1.3 1.3.2 5.7-8.2 4.9-9.4-.3-.5-.8-2.6-1-4.7-.4-3.4-2.1-7.8-6.2-16.1-1.8-3.6-7.9-10.2-15.7-16.9l-5-4.3 4.6 3c7.4 4.8 18.5 17.6 22.7 26 3.2 6.4 3.7 8.5 3.7 14.3 0 6.8.8 8.1 3.4 5.5 1.1-1 1.3-.9.9.3-.8 2.7-11.8 7.5-14.9 6.5-1.4-.5-2.5-.2-3 .6-1.4 2.3-1 3.9 1 3.9 1 0 2.4.7 3.1 1.5.7.9 1.9 1.4 2.6 1.1.7-.3 1.7 0 2.1.7.5.8.9.3 1.3-1.3.8-3.4 4.5-4 5.3-.8.4 1.2.4 2.4.2 2.7-.3.2-.5-.1-.5-.8 0-.7-.5-.9-1-.6-.6.3.3 1.7 1.9 3.1 3.1 2.5 5.5 10.1 4.3 13.3-.9 2.3-3.2 4.6-3.2 3 0-.8-.4-.8-1.5.1-.9.7-1.3 2.1-1 3.1.3.9.1 2-.5 2.4-.5.3-1 2.2-1 4.1 0 2.3.4 3.3 1.1 2.8.6-.3.9-1.7.6-3-.2-1.3-.1-2.4.3-2.4 1.3 0 2.1 3.2 1.2 4.4-.8 1-.9 3.1-.4 9 .1 1.1.7 1.6 1.7 1.3.8-.4 1.7-.2 2 .4.4.5 1 .7 1.4.4.5-.2.6.8.4 2.3-.4 2.1-.2 2.4.6 1.2 1.7-2.4 1.3-.4-1.2 5.2-2.1 4.7-5.7 9.3-5.7 7.3 0-.4.7-1.3 1.7-2 1.8-1.3 1.3-4.9-2.1-16-.9-2.8-2.1-7-2.7-9.5-2.4-9-4.4-13.4-8.1-17.8-2.1-2.4-4.5-5.8-5.2-7.5-.8-1.8-2.7-4.6-4.2-6.3-1.6-1.7-4.1-5.2-5.6-7.7-2.8-4.7-11.1-12-16.3-14.3-23-9.9-31.9-11.2-46-6.3-9.2 3.1-24.8 11.2-26 13.4-3.6 7-7.9 12.8-10.7 14.5-1.8 1.1-7.1 3.2-11.8 4.6-10.1 3.1-19.7 6.8-26.5 10.1-2.7 1.3-7 3.4-9.5 4.6-5.6 2.7-6.1 5-2.7 12.1 4.3 9.1 13.6 18.2 24.7 24.4l5.5 3 20.4.5c22.6.6 23.9.9 27.3 7.6 2.8 5.5 3.4 25.4 1.3 43.8-1.4 11.6-1.5 16-.7 17.3.9 1.5.8 2-.6 2.5-3.1 1.3 2.7 2.7 6.1 1.5 3.5-1.2 7.4-1.3 8.1-.2.2.4-1.1.7-3 .6-1.9-.1-3.4.2-3.4.6 0 .4-.9 1-2 1.3-2.6.7-2.6 4.1 0 6.7l2 2-2.5 1.2c-4.9 2.2-1.3 2.6 7.2.7 9.1-1.9 19.1-6.2 20-8.6.3-.7 1.2-1.3 2-1.3s1.2-.4.9-.9c-.3-.5.5-1.9 1.8-3.2 1.6-1.5 2.1-2.8 1.6-3.4-.5-.6-.7-2.1-.4-3.3.6-2 .7-2 3.1.9 1.8 2.1 3.1 2.8 4.4 2.4 1.1-.4 1.9-.2 1.9.5s.6.8 1.8.2c.9-.4 2.4-.8 3.2-.7.8.1 2.4-.4 3.6-1.1 1.2-.7 3.7-1.6 5.8-1.9 2-.4 3.6-1.1 3.6-1.6s.8-.9 1.8-.9 2.4-.9 3.1-1.9c.8-1.1 2-1.7 2.8-1.4.7.3 1.3 0 1.3-.6s-.4-1.1-.9-1.1c-.6 0-.4-1.5.3-3.2.8-1.8 1.2-4.7.9-6.4-.5-2.9-.4-3 3-2.6 1.9.2 4.5-.1 5.8-.8 1.8-.9 1.6-.3-1.1 2.3-3.9 3.7-8.4 9.7-7.4 9.7.3 0 2.2-1.7 4-3.7 1.9-2 3.4-3.1 3.4-2.3 0 .8 1-.3 2.1-2.5 1.2-2.2 2.5-4.2 2.9-4.5.3-.3 1.3-2 2.1-3.8.8-1.7 1.7-3.2 2-3.2.4 0 1-1.6 1.3-3.5.4-1.9 1.2-3.5 1.7-3.5.6 0 .8-.9.4-2s-.2-2 .4-2c.6 0 .8-.7.5-1.5-.4-.8-.2-1.5.4-1.5.9 0 .2-5.8-1.3-9.3-.4-1-.3-1.7.3-1.7 2.1 0 4.5 8.8 3.9 14.1-2.3 19.3-28.2 45.8-44.8 45.9-2.6 0-3.9.5-4.4 1.7-.6 1.6-.8 1.6-1.5-.3-.8-2.1-5-4-5-2.3 0 .4-.6.6-1.4.3-1.7-.7-2.9 4.6-1.4 6.4.7.8.7 1.2 0 1.2-.6 0-1.2-.5-1.4-1-.2-.6-2.2.5-4.5 2.5-13.5 11.6-41.6 14-59.1 5.1-2.7-1.4-5.4-3.2-6.2-4.1-1.1-1.3-.4-1.2 2.8.5 2.3 1.2 4.9 2 5.7 1.7.9-.4 1.2-.1.9.8-.6 1.4 4.1 3.3 5.3 2.2.3-.4 1.4-.2 2.3.3 2.6 1.4 13.3-4.2 14.9-7.6.8-1.8.9-3 .2-3.7-1.5-1.5-9.8-1.9-10.7-.5-.4.6-.2 1.4.4 1.6.7.2 1.2 1.2 1.2 2.1 0 1.6-.6 1.7-5.4 1-5.5-.7-8.8-2-12-4.8-1.4-1.2-2-1.3-2.3-.4-.6 1.8-3 1.6-3.7-.2-.7-2 .3-4.5 1.9-4.5 1.7 0 1.6-5-.1-5.7-.8-.3-1.4-1.4-1.4-2.4 0-2.4-2.9-3.7-4-1.9-.5.8-1.9 1.1-3.9.7-4.3-.9-8.4 3.2-4.6 4.7.8.3 1.5 1.2 1.5 2s.5 1.8 1.2 2.2c.6.4.8.3.4-.4-.9-1.5 1.1-6.2 2.8-6.2 2 0 2.7 2.6 1.6 5.6-.6 1.4-1 3.6-1 4.9 0 1.2-.7 2.5-1.5 2.9-.8.3-1.4.9-1.3 1.3.2.4-.1 1-.7 1.2-.6.2-.9-1-.7-2.8.3-3 .3-3-2.8-1.9-3.4 1.1-12.9.5-17.4-1.2-2.5-.9-2.6-1-.9-2.8 1.8-1.9 3.3-1.9 3.3-.1 0 .6-.4.7-1 .4-.5-.3-1-.1-1 .4 0 1.4 1.3 1.4 2.6.1.6-.6 2.7-.7 5.6-.2 2.7.5 5.3.5 6.2 0 .9-.5 2.1-.6 2.6-.3.6.3 1-.3 1-1.4 0-2.5-1.5-3.5-3.7-2.3-.9.6-2.4.6-3.2.2-.9-.5-2.8-1.1-4.3-1.4-3.4-.8-8.8-5.3-8.8-7.5 0-.9.5-2.2 1.2-2.9.9-.9.9-1.2-.1-1.2-.7 0-1-.4-.7-.9.3-.5-.1-1.1-.9-1.5-.8-.3-1.5-1.3-1.5-2.3-.1-2.9-3.6-6.3-6.4-6.3-1.6 0-2.6-.6-2.6-1.4 0-1.9-1.7-2.9-3.1-2-.8.4-.7.9.2 1.6.9.6.3.7-1.9.4-4-.5-7-3-8.8-7.1l-1.4-3 .4 4.5c.2 2.5 1.1 6.2 2.1 8.2 1.8 3.8 2.1 3.9 10.7 5.4 2.5.4 3.5 1 3.1 1.8-.4.6-.6 1.9-.5 2.8.2 1-.2 1.8-.8 1.8-.7 0-.9.8-.4 2.2.6 2 .5 2.1-.9 1-.9-.8-1.3-2.1-1-2.9.5-1.1.3-1.4-.6-.9-1.8 1.1-9.4-7.5-13.1-14.7-3.8-7.6-4.8-13.9-2.6-17.2 2-3 3.6-3.2 3.6-.4 0 1.1.4 1.8 1 1.4.5-.3.7-2.1.5-4-.4-2.7-.1-3.5 1.5-4 1.3-.4 1.9-1.4 1.8-3.1-.3-2.9-1.8-3.3-1.8-.4 0 1.3-.7 2-1.9 2-1 0-3.5 1.1-5.5 2.5-2.6 1.7-4.4 2.3-6.2 1.9-2.8-.7-2.9-1.2-.9-3.8.8-1 2.1-1.6 2.9-1.3.9.4 2.3-.4 3.6-2.1 1.1-1.5 2.4-3.2 2.9-3.8 1.4-1.7.1-2.5-2.2-1.3-2.6 1.4-6.4-.5-8.3-4.3-.8-1.5-1.6-2.8-1.8-2.8-.8 0 .7 4.5 2 6 .7.9 1 2.1.5 2.8-1.2 2-5.5-3.6-8.1-10.5-6.4-17.1-3.7-42.4 5.6-51.6 2.8-2.8 6.4-3.6 6.4-1.4 0 .7-.5 1.8-1 2.3-.7.7-.6 1.1.5 1.1.8 0 1.5-.6 1.5-1.2 0-.7 1-2.5 2.1-3.9 1.9-2.4 2-3 .8-4.2-1.2-1.1-2.2-1.1-5.4-.3-11 3-17.5 17.2-17.5 37.9 0 14.1 3.8 27 9.7 33.3 1.5 1.5 2.2 2.7 1.7 2.7-1.3 0-6.4-6.4-8.6-10.7-1.4-2.9-2.9-7.4-3.4-10.8-.1-.6-.2-1.2-.3-1.5-.1-.3-.4-3-.6-6-.3-3-.7-6.1-1-6.8-.3-.8-.2-1.9.2-2.5.4-.7.8-3.6 1-6.7.4-7.2 4.2-19.4 6.7-21.1.4-.4.6-1.1.2-1.7-.3-.5.3-1.2 1.4-1.5 1.3-.3 1.8-1.1 1.4-2-.3-1 .5-2.1 2.5-3.3 1.7-1 3.1-2.1 3.1-2.4 0-.3.4-1.2.9-1.9.8-1.2 1.3-1.1 2.8.8l1.9 2.3 3.5-2.4 3.5-2.4-1.8-2.9-1.8-3v2.7c0 4.1-2.6 3.5-3.4-.8C45.5 82 72.3 52 90.1 52c5.3 0 7.3 1.5 3.7 2.9l-2.3.8 2.3.7c1.7.6 2.2 1.3 1.7 2.4-.5 1.4-.4 1.5.7.4.7-.7 1.3-2 1.3-2.9 0-.9.8-2.1 1.7-2.7 1.4-.8 2.2-.6 3.7 1.1 1.1 1.1 2.5 2.3 3.1 2.5 1.6.5.1 3.8-1.7 3.8-.8 0-1.1.4-.8 1 .7 1.2 4.2-.8 5-2.9.3-.8 0-1.8-.7-2.2-.9-.6-1-1.3-.3-2.3 6.2-8.9 7.3-10.6 6.7-10.6-.5 0-1.9 1.8-3.2 4-1.4 2.2-2.8 4-3.1 4-1.7 0-1.8-3.6-.1-6.4 3.3-5.7 11.5-9.8 24.2-12 4.8-.9 21.6.3 26.9 1.9zm81.1 7.7c3.4 3.4 8 8.6 10.2 11.6 4.6 6.2 10.1 16.8 9.6 18.4-.2.6-1.5-1.3-2.7-4.3-2.2-5-7.6-13-9.3-13.7-.5-.2-.8-.8-.8-1.3 0-1.1-4-5.8-10.4-12.1-2.8-2.6-4.5-4.8-3.9-4.8.6 0 3.9 2.8 7.3 6.2zm-47.5-1.1c-.5 1.4-.3 2 .7 1.8 1.7-.4 12.8 3.3 12.8 4.2 0 .4-1.9 0-4.2-.8-2.4-.8-6.5-1.6-9.3-1.7-3.8-.2-5.1-.7-5.3-2-.3-1.5-.1-1.6 1.7-.6 1.8.9 2.1.8 2.1-1 0-1.1.5-2 1.1-2 .6 0 .8.9.4 2.1zM99 44.6c0 1.1.6 1.4 2 .9 2-.6 2.8.9 1 2-.5.3-.7 1.2-.3 2 .6 1.8-.4 1.9-2.1.2-1.5-1.5-2.7-6.7-1.5-6.7.5 0 .9.7.9 1.6zm-5 .4c0 .5-.4 1-1 1-.5 0-1-.5-1-1 0-.6.5-1 1-1 .6 0 1 .4 1 1zm-7.7 3.6c-10 2.1-15.1 5.1-24.4 14.4C51.2 73.7 46 83.3 45.2 94.2c-.3 4.8-.9 6.8-1.8 6.8-1.7 0-1.7-1-.1-8 .8-3.1 1.2-6.1.9-6.8-.2-.7.1-1.2.6-1.2.6 0 1.3-1.3 1.7-3 .4-1.6 1.1-3.2 1.6-3.5.5-.4.9-1.3.9-2.1s.7-2.2 1.5-3.2c1.8-2 5.9-6.7 8.9-10.2 3.2-3.8 10.5-9.5 16.1-12.6 2.8-1.5 5.1-2.7 5.2-2.6.2.1.8 0 1.5-.3 2.7-.8 5.4-1.1 7.8-.6 1.9.3.9.8-3.7 1.7zm128.8 10.6c3 2.8 8.1 11 5.6 8.9-.9-.7-1.7-1-1.7-.5s-1.1 1.4-2.5 2.1c-2.3 1-2.5.9-2.5-1.3 0-1.3.4-2.4.9-2.4 1.2 0 .2-3.8-1.7-6.8-.8-1.2-1.2-2.2-1-2.2.3 0 1.6 1 2.9 2.2zm46.5 20.3c.6 4.6.3 8.6-1.1 11.7-.5 1.4-.2 1.8 1.4 1.8 1.2 0 2.1.4 2.1.8s-1.6.6-3.5.4l-3.4-.4 1.5-2.9c1.6-3.2 2.1-11.3.9-14.2-.4-1-.3-1.7.3-1.7s1.4 2 1.8 4.5zm-92.8 9.7c6.9 1.7 14.5 9.5 16.2 16.6 1.3 5.7.8 10.5-1.7 15.7-1.5 3.1-1.5 3.6 0 6.7.9 1.9 1.8 4.7 2.1 6.3.3 1.7 1 5.1 1.4 7.7.5 2.6.8 4.9.6 5-.1.2-.5 2.1-.8 4.3-1.2 9.6-7.3 20.9-16 29.5-4 3.9-5.9 5.1-6.7 4.3-.8-.8.6-2.7 4.8-7 7.3-7.5 7.7-8 11.2-15 2.9-5.9 4.3-11.2 4.3-17.2 0-4.8-2.1-14.3-3.8-16.5-1.3-1.8-1.5-1.8-3.2-.3-3.1 2.8-8.9 4.7-14.4 4.7-12.9-.1-22.8-9.9-22.8-22.5 0-11.1 6.2-19.3 17-22.6 3.7-1.1 6.6-1 11.8.3zM251 93c0 .5-.2 1-.4 1-.3 0-.8-.5-1.1-1-.3-.6-.1-1 .4-1 .6 0 1.1.4 1.1 1zm7 2.4c0 .3-.4.8-1 1.1-.5.3-1 .1-1-.4 0-.6.5-1.1 1-1.1.6 0 1 .2 1 .4zm13 4.3c3.4 4.4 9.7 18.3 10.9 24.2 1.9 8.9 2.4 25 1.2 32.9-1.8 11.3-6.3 22-11.3 26.9-2.4 2.2-5.4 4.6-6.7 5.3-2.1 1.1-2.6.9-4.7-1.6-2.8-3.5-3-4.8-.5-3.5 1 .6 2.2.7 2.6.3.5-.4.5.1.2 1-.8 2.2.3 2.3 2.9.3 1.1-.9 1.3-1.3.4-1-.9.3-2.1-.4-2.9-1.7-1-1.8-1-2 0-1.1.7.7 2.1 1.3 3.1 1.3s1.8.5 1.8 1.1c0 .5.5.7 1.1.4.7-.5.4-1.4-.7-2.6-2.1-2.3-1.3-3.6.9-1.4 1.4 1.4 1.8 1.3 3.6-.7 2.5-2.6 2.6-3.7.6-4.5-2.1-.7-3.3.6-1.6 1.6.7.5.9 1.1.5 1.4-1.4.8-3.3-1.9-2.4-3.3.5-.7 1.9-1.1 3.3-.8 2.2.4 2.9-.1 4.3-3 .9-1.9 1.4-4.5 1.1-5.8-.2-1.3 0-2.5.5-2.6.6-.2 1.2-2.6 1.4-5.3.2-2.8.7-6.4 1-8.1.3-1.9.1-3.4-.5-3.8-.6-.4-1.1-1.3-1.1-1.9 0-.7.4-.6 1 .3.7 1 .9-.1.7-3.8-.2-3.3-.9-5.7-1.8-6.3-1.2-.8-1.2-1 .1-1.9 1.1-.7 1.2-1.2.3-2.1-.8-.8-.9-1.8-.3-3 .7-1.2.6-2.2-.5-3.3-.9-.8-1.5-1.9-1.4-2.3.3-1-1.6-6-3.6-9.4-.8-1.4-1.2-2.9-.9-3.2.3-.3-1-3-3-6.1-3.7-5.8-3.4-7.7.4-2.9zm-16.7 4.3c-.3 1.1-1.3 2-2.2 1.9-1 0-1.1-.2-.3-.6.6-.2 1.2-1.1 1.2-1.9 0-.8.4-1.4.9-1.4s.7.9.4 2zm-221.9 1.9c-.2.3-1.2-.3-2.2-1.3-1.6-1.7-1.6-1.8.5-.5 1.2.7 2 1.5 1.7 1.8zm9.2-1.7c.4.6.3.8-.4.4-.5-.3-1.3 0-1.5.6-.3.8-.6.6-.6-.5-.1-1.9 1.4-2.3 2.5-.5zm205.8 1.3c-.4.8-.8 1.5-1 1.5-.2 0-.4-.7-.4-1.5s.4-1.5 1-1.5c.5 0 .7.7.4 1.5zm-18.4 1.9c0 .3-.4.8-1 1.1-.5.3-1 .1-1-.4 0-.6.5-1.1 1-1.1.6 0 1 .2 1 .4zm25.5 10.1c5.2 10.5 6.8 27 3.9 39.8-3 13.2-8.1 20.2-16.8 23.2-3.3 1.2-4 1.1-5.7-.3-2.5-2.2-2.4-3.6.1-2.2 1.6.9 2.2.8 2.6-.5.4-.9 1.8-1.5 3.5-1.5 1.6 0 2.9-.4 2.9-.9s.9-1.1 2.1-1.4c1.2-.3 1.8-1 1.5-1.5-.3-.6.1-1.2.9-1.6.8-.3 1.5-1.4 1.5-2.5s.5-2.3 1-2.6c.6-.3 1-1.5 1-2.6 0-1 .4-1.9.8-1.9s.8-1.7.8-3.8c0-2.3.5-3.6 1.2-3.4.7.1 1.2-.2 1.2-.8 0-.5-.5-1-1-1-1.2 0-.2-13.4 1.1-13.8 1.6-.6.9-1.8-1.1-1.9-1.7-.2-2 .5-2.1 4-.1 5.7-1.2 9.6-2.3 7.9-.4-.7-.5-2-.2-2.8.3-.9.1-1.2-.4-.9-.6.3-1 .1-1-.4 0-.6-.9-1.1-2-1.1s-2-.5-2-1c0-.6.7-1 1.5-1 1.8 0 3.1-2.4 4.9-9.2.8-2.9 1.5-4.3 1.5-3.2.1 2.3 2.6 4 3.6 2.4.4-.6.1-1-.5-1s-1.6-1.3-2.1-3c-.7-1.8-1.5-2.7-2.2-2.3-.7.4-.6-.1.1-1 .8-.9 1-2.2.6-2.9-.4-.7-.9-2.3-1-3.6-.2-1.3-1.5-4-3-6l-2.7-3.7 2.6 2.4c1.5 1.4 3.9 4.8 5.2 7.6zm-219-5.5c.3.5.2 1-.4 1-.5 0-1.3-.5-1.6-1-.3-.6-.2-1 .4-1 .5 0 1.3.4 1.6 1zm241.2 18.2c-.3.8-.6.5-.6-.6-.1-1.1.2-1.7.5-1.3.3.3.4 1.2.1 1.9zm1.1 8.1c.8 1 .6 1.3-.9 1.4-1.9.2-2.5-.8-1.2-2 .8-.9.9-.9 2.1.6zm.6 5.2c-.4.8-1.1 1.2-1.6.9-.6-.4-.5-1 .3-1.5 1.9-1.2 1.9-1.1 1.3.6zm1.6 7.5c0 .5-.4 1-1 1-.5 0-1-.5-1-1 0-.6.5-1 1-1 .6 0 1 .4 1 1zm-1.2 4c1.2 0 1.3.3.5 1.1-1.6 1.6-3.3.2-3.2-2.4.1-1.7.2-1.8.6-.5.2 1 1.2 1.8 2.1 1.8zm-2.3 6.1c-.3.4-1.2.6-2 .3-.8-.4-1.3-1-1-1.5.3-.4 1.2-.6 2-.3.8.4 1.3 1 1 1.5zM275 166c0 1.1-.4 2-.9 2s-.7-.9-.4-2c.3-1.1.7-2 .9-2 .2 0 .4.9.4 2zm2.4-.4c.3.8.2 1.2-.4.9-.6-.3-1-1-1-1.6 0-1.4.7-1.1 1.4.7zm-36.4 6.9c0 1.4-.4 2.5-1 2.5-.5 0-1-1.1-1-2.5s.5-2.5 1-2.5c.6 0 1 1.1 1 2.5zm33-1.5c0 .5-.5 1-1.1 1-.5 0-.7-.5-.4-1 .3-.6.8-1 1.1-1 .2 0 .4.4.4 1zm-41 3c0 .5-.8 1-1.7 1-1.5 0-1.6-.2-.3-1 1.9-1.2 2-1.2 2 0zm-2 3c0 .5-.4 1-1 1-.5 0-1-.5-1-1 0-.6.5-1 1-1 .6 0 1 .4 1 1zm-1.3 3.5c0 1.8-1.9 1.5-2.5-.3-.2-.7.3-1.2 1.1-1.2.7 0 1.4.7 1.4 1.5zm13.8 1.5c.3.5.2 1-.4 1-.5 0-1.3-.5-1.6-1-.3-.6-.2-1 .4-1 .5 0 1.3.4 1.6 1zm14.5-.3c0 1.4-1.9 3.8-2.5 3.2-.8-.8.5-3.9 1.6-3.9.5 0 .9.3.9.7zm-11.5 1.3c.3.5.1 1-.4 1-.6 0-1.1-.5-1.1-1 0-.6.2-1 .4-1 .3 0 .8.4 1.1 1zm-15.9 3.3c.5.1.8.5.7.9-.2.4 1.3.4 3.2.1 3.3-.5 3.5-.4 3.5 2.3 0 3.2-1.9 7.2-2.1 4.4 0-1-.3-.8-.9.5-.8 1.9-.9 1.9-.9-.3-.1-1.2.4-2.2 1-2.2.5 0 .7-.5.4-1-.3-.6-1.5-1-2.5-1-1.9 0-5-3.5-5-5.5 0-.5.4-.4.9.3.4.8 1.2 1.4 1.7 1.5zm16.4 2.6c0 .6-.4 1.3-1 1.6-.5.3-1-.1-1-.9 0-.9.5-1.6 1-1.6.6 0 1 .4 1 .9zm8 2.1c0 .5-.4 1-1 1-.5 0-1-.5-1-1 0-.6.5-1 1-1 .6 0 1 .4 1 1zm3.5 0c-.3.5-1.2 1-1.8 1-.7 0-.6-.4.3-1 1.9-1.2 2.3-1.2 1.5 0zm7 6.4c1.6 10.5-5.8 28.1-17.1 40.4-5.1 5.6-6.9 7-7.6 6-.7-1-.8-.8-.4.5.7 2.3-8.5 9.6-18.4 14.5-7 3.4-8.1 3.7-16.7 3.7-6.1 0-9.3.4-9.3 1.1 0 .6-1.8 3.2-4.1 5.7-10.2 11.7-34.3 17.6-58.1 14.4-12-1.6-22.3-5.8-29.2-11.9-3.4-2.9-3.8-3.7-2.8-5.4 1.1-1.9 1.1-1.9 1.3.1.1 1.1.1 2.4 0 2.8-.1.4.4.7 1.1.6 2.8-.3 4.8.2 4.8 1.2 0 .5-.5.7-1 .4-.5-.3-1-.1-1 .4 0 .6.7 1.1 1.5 1.1.9 0 1.8.7 2.1 1.5.4.8 1.1 1.5 1.7 1.5.5 0 .3-.8-.6-1.8-2-2.2-2.1-3.2-.4-3.2.8 0 1.9 1.1 2.5 2.5.7 1.4 2 2.5 3.1 2.5 1.4 0 1.9.5 1.5 1.5-.4.8-.1 1.5.5 1.5s1.1-1 1.1-2.1c0-1.9.2-2 1.6-.8 1 .8 1.2 1.5.5 1.7-1.5.5-.3 2.2 1.6 2.2 1.1 0 1.4-.6 1-2.2l-.6-2.1 2.2 2.1 2.2 2.2 1.3-3.2c.7-1.8 1-2.3.8-1.1-.3 1.7.4 2.7 2.9 4.2 3.1 1.8 3.4 1.8 3.8.3.4-1.4.6-1.3 1.2.5.9 2.7 2.3 3.1 2.1.6-.1-1.2.7-1.8 2.3-1.9 1.3-.1 2.8-.9 3.3-1.8 1-1.8 3.8-2.2 3.8-.5 0 .5-.5.7-1.1.3-1.2-.7-2.9 1.2-2.9 3.2 0 .8 1.2.7 4.2-.3 2.8-1 4.4-1.1 5.2-.3.7.7.5 1-.7 1-.9 0-1.7.5-1.7 1 0 1.1 5.3.2 5.8-.9 1-2.2 2.2-3.4 2.9-2.8.4.5.1 1.2-.7 1.7-1.1.7-1.1 1-.2 1 .7 0 1.5-.7 1.8-1.5.4-.8 1-1.2 1.5-.9.5.3.9-.1.9-1 0-.8-.5-1.6-1-1.8-.6-.2.3-.8 1.9-1.5 2.5-.9 3.3-.8 4.3.4 1 1.3.9 1.4-.8 1.1-1.2-.1-2.2.1-2.3.7-.2 1.5 4.4 1.3 5.8-.2.9-1.1.9-1.4-.3-1.9-.9-.3-1.3-1-1-1.5.9-1.5 2.2-1 2.9 1.1.8 2.6 2.5 2.6 2.5 0 0-2 1.3-2.5 5.5-2 1.1.1 1.7-.1 1.3-.6-.4-.4-.3-1.3.3-2.1.6-.7.8-1.3.4-1.3s-1.4.8-2.1 1.8c-1.3 1.6-1.3 1.6-1.4-.1 0-1.1.9-2.1 2-2.4 1.1-.3 2-1.3 2.1-2.2 0-1.2.2-1.1.9.4.6 1.6.9 1.7 1.4.5.3-.8.4-2.4.3-3.4-.1-1.4.5-2 2.3-2.1 1.4-.1 2.8.3 3.3.9.8 1.3 2.9-1.3 2.1-2.6-.3-.4.2-.8 1-.8.9 0 1.6.6 1.6 1.3 0 1 1.3 1.2 4.9 1 2.7-.3 5.2 0 5.5.6.4.6 1.9.3 4-1 1.8-1.1 4-1.7 4.8-1.4 1 .4 1.7-.1 2-1.2.3-1 1.8-2.5 3.4-3.3 1.6-.8 3.5-2.1 4.2-2.8.8-.7 1.7-1 2.2-.7 1.5.9 2.3-1.7.9-2.7-1.2-.8-1.1-.9.1-.5.8.2 1.4 1.1 1.4 2-.2 2.3 3 .5 5.2-2.8 1.3-2 1.4-2.8.4-4-1-1.2-.6-1.3 2.2-.9 2.8.3 3.7-.1 5.7-2.7 1.3-1.7 2.4-3.7 2.4-4.5 0-1 .4-1.1 1.3-.3 1 .8 1.3.3 1.6-1.8.2-1.5.8-2.7 1.4-2.6.7.1 1.5-1.2 1.9-3 .4-1.8.9-2.6 1.2-1.9.8 2.1 2.3.2 1.7-2.2-.4-1.8-.1-2.5 1.5-2.9 1.6-.4 2.1-1.3 2.1-4.1 0-2 .5-3.6 1.1-3.6.6 0 .8-.9.4-2-.4-1.2-.2-2 .5-2s1-.6.7-1.4c-.3-.8-.1-1.7.6-1.9.9-.3.9-.7 0-1.7-.7-.8-.8-2.1-.4-3.4.5-1.1.8-3.3.7-4.8-.2-4.1 1.2-2.2 1.9 2.6zm-14.5-3.8c0 .8-1.9 1.3-2.4.6-.3-.5.1-.9.9-.9s1.5.2 1.5.3zm-203 4.5c0 5.3 3.3 14 8.1 21.1 2.3 3.5 3.5 5.6 2.7 4.8-3.7-3.7-10.7-15.1-11.4-18.5-.4-2.5-1.1-3.5-2-3.1-.8.3-1.4-.1-1.4-.9s.5-1.5 1-1.5c.6 0 1-.7 1-1.6 0-1.4-.2-1.4-1.6.1-.9.9-1.9 1.3-2.3.9-.3-.4 0-.9.7-1.1.6-.3 1.2-1.3 1.2-2.3 0-1.3.7-1.8 2-1.7 1.6.1 2 .8 2 3.8zm-10-2.2c0 .5-.7 1.1-1.4 1.4-1 .4-1.3.1-.9-.9.6-1.5 2.3-1.9 2.3-.5zm-10.8 8.4c-.4 6.5-.1 8.1 2.7 14.8 3.2 7.7 1.4 6.8-2.1-1.1-2.1-4.6-3-15.8-1.6-19.3 1.3-3 1.5-1.9 1 5.6zm206-2.6c-.6 1-2 2.7-3.3 3.8-1.7 1.6-1.6 1.2.7-2.1 2.9-4.2 4.4-5.2 2.6-1.7zm-190.4 4.8c-.3.3-.9-.2-1.2-1.2-.6-1.4-.5-1.5.5-.6.7.7 1 1.5.7 1.8zm176.2 3.9c-1.2 2.6-2.6 4.6-3.1 4.6-.6 0-2.3 1-3.9 2.2-2.6 1.9-2.9 2.6-2.4 6 .4 2.5.3 3.8-.4 3.8-.6 0-.9-.6-.6-1.4.3-.8.1-2.4-.5-3.5-.9-1.7-.8-2.4.9-4.1 1.1-1.1 2-3 2.1-4.3 0-1.2.3-1.7.5-1.1.6 1.5 4.4.6 4.4-1.1 0-1.3 4.2-6.4 4.9-5.9.2.2-.7 2.3-1.9 4.8zm7.5-4.4c.3.5.1 1-.4 1-.6 0-1.1-.5-1.1-1 0-.6.2-1 .4-1 .3 0 .8.4 1.1 1zm-12.3 4.2c-.7.7-1.2.8-1.2.2 0-1.4 1.2-2.6 1.9-1.9.2.3-.1 1.1-.7 1.7zm10.1-.7c-.3.9-.8 1.4-1 1.1-.3-.3-.2-.9.2-1.5.9-1.6 1.5-1.3.8.4zm34.7 8.3c0 1.5-.2 1.5-1 .2-1.3-2-1.3-3.3 0-2.5.6.3 1 1.4 1 2.3zm-44.8 5.4c-.9.9-1.5.9-2.4-.1-.9-1-.9-1.2-.1-.7.6.3 1.5.1 1.8-.5.4-.5 1-.8 1.3-.4.3.3 0 1.1-.6 1.7zM78 224.4c0 .3-.4.8-1 1.1-.5.3-1 .1-1-.4 0-.6.5-1.1 1-1.1.6 0 1 .2 1 .4zm114.3 4.1c.9.8 1.7 2 1.9 2.7.3.7 1.7 1.2 3.2 1 2.5-.2 2.6-.1 1.1 1.5-1.4 1.4-1.8 1.4-2.6.2-.5-.8-.9-1-1-.4-.1.5-.2 1.4-.4 2-.1.5-.3 1.4-.3 1.9-.1.5-1.1.1-2.2-.9-1.4-1.2-1.7-2.5-1.3-4.6.4-2.4.1-3-1.8-3.8-2.3-.9-2.3-1-.2-1 1.2-.1 2.8.6 3.6 1.4zm-12.4 2.4c-1.3 1.1-2.7 2-3.1 2.1-.5 0-.8 1.4-.8 3.1 0 1.7.4 2.8 1 2.4.6-.3 1.5-.3 2 0 1.4.9-.7 4.5-2.6 4.5-1 0-1.4.6-1.1 1.4.4 1 0 1.2-1.4.9-1-.3-1.9 0-1.9.6s-.5 1.1-1.2 1.1c-.6 0 .1-1.3 1.6-2.9 2.2-2.3 2.6-3.5 2.2-6.2-.5-2.7-.1-4 1.7-6 2.3-2.5 4.8-4 5.6-3.3.2.2-.7 1.2-2 2.3zm-67.4.1c.3.5.1 1-.4 1-.6 0-1.1-.5-1.1-1 0-.6.2-1 .4-1 .3 0 .8.4 1.1 1zm-37 1c.3.5.1 1-.4 1-.6 0-1.1-.5-1.1-1 0-.6.2-1 .4-1 .3 0 .8.4 1.1 1zM43 238.8c0 1.5 8.4 9.3 10.7 9.8 1.2.4 2 1 1.8 1.5-.7 1 6.1 4.1 9.3 4.1 1.2 0 2.2.5 2.2 1s-.4.6-1 .3c-.5-.3-1 .1-1 .9 0 1 .9 1.6 2.3 1.6 1.2 0 3.2.7 4.4 1.5 1.2.8 3.4 1.6 5 1.7 1.5.1 3.2.7 3.6 1.3.5.6.7.3.3-.8-.6-1.9-.5-2 1.8-1.1.9.3 1.3 1 1 1.5-.8 1.3 3 1.1 4.4-.3.9-.9 1.2-.8 1.2.5 0 .9.5 1.7 1 1.7.6 0 1-.5 1-1.1 0-.6.8-.8 1.9-.4 1.2.3 2.1 0 2.5-1 .7-1.9 3.6-2 3.6-.1 0 3.8-8 6.1-16 4.5-8.5-1.7-22.6-8.9-30.4-15.5-7.9-6.8-15.6-15.5-11.8-13.5 1.2.6 2.2 1.5 2.2 1.9zm36.6 1.9c-.6.6-4.6-2-4.6-3 0-.4 1.1 0 2.5.9s2.4 1.9 2.1 2.1zm110.4 4.9c0 .8-.4 1.2-1 .9-.5-.3-1-1-1-1.6 0-.5.5-.9 1-.9.6 0 1 .7 1 1.6zm45.3-.1c.4.8.2 1.7-.2 2-.5.2-1.1-.4-1.4-1.5-.6-2.3.8-2.7 1.6-.5zm-74.3 2.6c0 .6-.4.7-1 .4-.5-.3-1-1.1-1-1.6 0-.6.5-.7 1-.4.6.3 1 1.1 1 1.6zm37-1.1c0 .5-.2 1-.4 1-.3 0-.8-.5-1.1-1-.3-.6-.1-1 .4-1 .6 0 1.1.4 1.1 1zm-29.4.9c-.7 1.1-6.6 2-6.6 1 0-.4 1.2-1 2.8-1.2 1.5-.2 3.1-.5 3.5-.6.5 0 .6.3.3.8zm-57.6 1.6c-.7.8-1.8 1.5-2.4 1.5-.6 0-.2-.7.8-1.5 2.5-1.9 3.2-1.9 1.6 0zm79.7 1.7c-.3.8-.6.5-.6-.6-.1-1.1.2-1.7.5-1.3.3.3.4 1.2.1 1.9zm8.3-1.2c0 .6-1.1 1.5-2.4 2.1-1.7.8-2.2 1.7-1.8 3.1.3 1.5.1 1.9-.9 1.6-2.8-.9-2-4.2 1.3-5.9l3.6-1.8c.1 0 .2.4.2.9zm-100.6 5.2c-.3.5-1.2.4-2-.3-1.9-1.6-1.8-1.8.6-1.2 1.1.3 1.7.9 1.4 1.5zm12.2 1.3c-.3.8-1.3 1.4-2.3 1.4-1.7-.1-1.7-.2 0-.6.9-.2 1.7-1.4 1.8-2.6 0-1.2.3-1.6.6-.9.3.7.2 1.9-.1 2.7zm-8.2 1.1c-.4 1.5-.2 2.4.6 2.4.6 0 .8.4.5 1-.3.5-1.4 1-2.3.9-1 0-1.2-.3-.5-.5.8-.4.9-1.3.4-2.7-.9-2.5-.4-5 1-4.1.5.3.6 1.6.3 3zm94.3-1.4c-.3.8-.6.5-.6-.6-.1-1.1.2-1.7.5-1.3.3.3.4 1.2.1 1.9zm-7.7-.8c0 1.1-1.9 1.5-2.5.6-.3-.5.1-1 .9-1 .9 0 1.6.2 1.6.4zM72 257c0 .5-.5 1-1.1 1-.5 0-.7-.5-.4-1 .3-.6.8-1 1.1-1 .2 0 .4.4.4 1zm6.9-.1c.2.1-.2.8-.9 1.6-1.6 1.9-3.4 2-2.7.1.3-.8.1-1.7-.6-2-.9-.4 1.7-.2 4.2.3zm18.8 1.7c-.3.3-1.2.4-1.9.1-.8-.3-.5-.6.6-.6 1.1-.1 1.7.2 1.3.5zM145 276c0 .5-.7 1-1.5 1s-1.5-.5-1.5-1c0-.6.7-1 1.5-1s1.5.4 1.5 1zm-9.8 2.2c-.9.9-1.5.9-2.4 0-.9-.9-.7-1.2 1.2-1.2s2.1.3 1.2 1.2z"/><path d="M132.1 39.7c-1 1.9-1.9 2.1-3 .6-.3-.4-2.4-.5-4.6-.2-3.7.6-3.7.6-.8.8 1.7 0 3.5.5 3.8 1.1.3.5 1.9 1 3.6 1 1.6 0 2.9.4 2.9 1 0 .5-.3.9-.7.9-2.4-.4-4.3.2-3.8 1.2.4.5 1.7.9 2.8.8 1.2 0 2.4 0 2.7.1.3.2 2.4.4 4.7.5 4.3.3 5.7-.6 5.8-3.5 0-2.1 3.5-2.6 3.5-.5 0 .9-.4 1.3-1 1-.5-.3-1-.2-1 .4 0 1.7 1.9 2.3 3.7 1.2 1-.6 1.2-1.1.6-1.1-1.7 0-1.7-3 0-3 .7 0 2.2-.7 3.3-1.5 1.8-1.4 1.6-1.5-2.2-.9-2.2.3-5.8.7-8 .7-2.9.2-3.8.6-3.6 1.7.2.8-.9.1-2.3-1.5-1.5-1.7-2.4-2.2-2.1-1.3.3 1.2-.1 1.6-1.5 1.5-1.1-.1-1.7-.7-1.5-1.4.8-1.9-.1-1.6-1.3.4zM158 40c.8.5 2.2 1 3 1 1.3 0 1.3-.1 0-1-.8-.5-2.2-1-3-1-1.3 0-1.3.1 0 1zM78.6 60.3c-2.4 2-3.9 4.3-4.1 6-.2 1.5-.9 3.4-1.5 4.2-.6.8-.9 1.9-.5 2.5.4.6-.9 1.7-2.9 2.5-4.5 1.9-4.4 1.9-4.9-.8-.3-1.3-.5-.8-.6 1.5 0 2.1-.4 3.7-.8 3.6-1.4-.2-4.3 1.4-4.3 2.4 0 .5.4.6 1 .3.5-.3 1.9-.1 3 .5 2.7 1.4 4.5.3 2.9-1.7-1.1-1.2-.9-1.3 1.2-.8 1.8.5 3-.1 5-2.2 3.3-3.5 4.6-6.8 2.4-5.9-2 .7-1.9-.1.5-3.1 1.1-1.4 2-3.4 2-4.3 0-1 1.6-3.2 3.5-4.9 2-1.7 3.2-3.1 2.7-3.1s-2.6 1.5-4.6 3.3zM177.3 57.7c-1.8.7-1.6 2.3.2 2.3.8 0 1.5-.7 1.5-1.5s-.1-1.5-.2-1.4c-.2 0-.9.3-1.5.6zM173.6 59.5c.4.8.8 1.5 1 1.5.2 0 .4-.7.4-1.5s-.4-1.5-1-1.5c-.5 0-.7.7-.4 1.5z"/><path d="M68.5 70c.3.5.8 1 1.1 1 .2 0 .4-.5.4-1 0-.6-.5-1-1.1-1-.5 0-.7.4-.4 1zM77.7 69.7c-.4.3-.7 1.1-.7 1.7 0 .6.5.5 1.2-.2.6-.6.9-1.4.7-1.7-.3-.3-.9-.2-1.2.2zM57 110.5c0 .8.5 1.5 1 1.5.6 0 1-.7 1-1.5s-.4-1.5-1-1.5c-.5 0-1 .7-1 1.5zM55.5 114c-.3.5-.2 1 .4 1 .5 0 1.3-.5 1.6-1 .3-.6.2-1-.4-1-.5 0-1.3.4-1.6 1zM39.5 126.1c-.4.6-.5 1.2-.2 1.5.2.3.7-.2 1-1.1.7-1.7.1-2-.8-.4zM38.5 132c.3.5.8 1 1.1 1 .2 0 .4-.5.4-1 0-.6-.5-1-1.1-1-.5 0-.7.4-.4 1zM39 136.6c1.3 3.4 1.3 4.6-.2 3.9-.7-.4-.3.2 1 1.4 2.2 1.9 2.2 2 .2 2.6-1.1.3-2 1-2 1.5s.7.7 1.5.4c.8-.3 2-.2 2.6.2.9.5.5 1-1 1.6-1.6.5-2.1 1.3-1.7 2.4.9 2.3-.4 6.5-1.8 5.7-.6-.3-.6-.1.2.8.6.7 1.2 2.9 1.3 4.9 0 1.9.4 4.4.9 5.5.7 1.5.8 1 .4-1.6-.6-3.8 1.3-6.9 4.3-6.9 1.2 0 1.4-.7 1-3-.4-1.7-.2-3 .3-3s.9-1.9.8-4.3c0-3.3-.6-4.7-2.7-6.4-2.1-1.7-2.4-2.4-1.3-3.4 1-1.1 1.2-.8 1.2 1.1 0 1.8.3 2.1 1.1 1.3 1.7-1.7.3-4.3-2.1-4.3-1.1 0-2.3-.7-2.6-1.5-.4-.8-1-1.5-1.5-1.5s-.4 1.2.1 2.6zm6 20c0 .8-.4 1.4-.9 1.4-.6 0-.9-.9-.8-1.9.1-2.2 1.7-1.8 1.7.5zM55.1 198.6c0 1.1.3 1.4.6.6.3-.7.2-1.6-.1-1.9-.3-.4-.6.2-.5 1.3zM158.7 92.2c-10.4 2.2-16.7 9.4-16.7 19.1.1 11.1 9.4 19.7 21.2 19.7 14.6 0 24.1-15.2 17.6-28-4.3-8.3-13.2-12.7-22.1-10.8zM255 134c0 .5.7 1 1.5 1s1.5-.5 1.5-1c0-.6-.7-1-1.5-1s-1.5.4-1.5 1zM226.5 252.9c-.3.5-.1 1.2.4 1.5.5.3 1.1-.1 1.5-.9.6-1.6-.9-2.1-1.9-.6zM220.9 256.7c-1.3 1.7-1.3 1.7.6.3 1.1-.8 2.2-1.6 2.4-1.7.2-.2 0-.3-.6-.3s-1.7.8-2.4 1.7zM186 269c0 .5 1 1 2.3 1 1.8 0 1.9-.2.7-1-1.9-1.3-3-1.3-3 0z"/></svg>